<svg width="46" height="65" viewBox="0 0 46 65" fill="none" xmlns="http://www.w3.org/2000/svg">
<path d="M22.9719 64.418L4.18634 59.2839L0 13.0592H46.0001L41.8093 59.277L22.9719 64.418Z" fill="#4353AD"/>
<path d="M38.2217 56.3338L41.8025 16.8388H23V60.4882L38.2217 56.3338Z" fill="#485FB5"/>
<path d="M23 48.7067L22.9748 48.7131L16.5614 47.0083L16.1513 42.4869H10.3704L11.1772 51.3884L22.9735 54.6123L23 54.6051V48.7067ZM8.55994 22.5082L9.0834 28.1773H23V22.5082H8.55994ZM9.59707 33.9827L10.1131 39.6521H23V33.9827H9.59707Z" fill="#EDEDED"/>
<path d="M27.5654 0.497084H34.5403V2.99392H30.4824V3.49352H34.5403V9.23621H27.5654V6.61427H31.6236V6.11506H27.5656V0.497084H27.5654ZM19.1956 0.497084H26.1703V2.99392H22.1124V3.49352H26.1703V9.23621H19.1958V6.61427H23.2538V6.11506H19.1955V0.497084H19.1956ZM10.8259 0.497084H17.8005V3.36843H13.7427V6.24016H17.8009V9.1115H10.8259V0.497084Z" fill="#100F0D"/>
<path d="M36.3662 33.9829L37.4057 22.5083H22.9802V28.1775H31.0947L30.5708 33.9829H22.9802V39.6522H30.0715L29.4026 47.0051L22.98 48.7115V54.6096L34.7856 51.3886L34.872 50.4309L36.2257 35.5052L36.3662 33.9829Z" fill="white"/>
</svg>
