<svg width="46" height="65" viewBox="0 0 46 65" fill="none" xmlns="http://www.w3.org/2000/svg">
<path d="M4.16571 59.2839L0 13.059H45.7746L41.6044 59.2766L22.8592 64.418L4.16571 59.2839Z" fill="#E53D20"/>
<path d="M22.8872 60.4882L38.0342 56.3337L41.5979 16.8385H22.8872V60.4882Z" fill="#F15123"/>
<path d="M22.8873 33.9829H15.3044L14.7806 28.1773H22.8873V22.508H22.8674H8.51782L8.65504 24.029L10.0635 39.652H22.8873V33.9829Z" fill="#EDEDED"/>
<path d="M22.8874 48.7064L22.8623 48.7131L16.4802 47.0081L16.0721 42.4866H12.971H10.3196L11.1225 51.3882L22.861 54.6121L22.8874 54.6048V48.7064Z" fill="#EDEDED"/>
<path d="M4.25879 0.497122H7.17102V3.34359H9.8349V0.497122H12.7473V9.11694H9.83502V6.23058H7.17114V9.11694H4.259V0.497122H4.25879Z" fill="#100F0D"/>
<path d="M16.5769 3.3556H14.0132V0.497122H22.0542V3.3556H19.4893V9.11694H16.5771V3.3556H16.5769Z" fill="#100F0D"/>
<path d="M23.3303 0.497122H26.3669L28.2348 3.52585L30.1009 0.497122H33.1386V9.11694H30.2384V4.84448L28.2348 7.90934H28.1848L26.1799 4.84448V9.11694H23.3303V0.497122Z" fill="#100F0D"/>
<path d="M34.5879 0.497122H37.501V6.26776H41.5963V9.11694H34.5879V0.497122Z" fill="#100F0D"/>
<path d="M22.8674 33.9828V39.6519H29.9239L29.2588 47.0046L22.8674 48.7112V54.6094L34.6153 51.3883L34.7014 50.4305L36.0481 35.5051L36.1879 33.9828H34.6437H22.8674Z" fill="white"/>
<path d="M22.8674 22.5082V28.1775H36.6909H36.7093L36.8243 26.9031L37.0853 24.0291L37.2224 22.5082H22.8674Z" fill="white"/>
</svg>
