<svg width="162" height="37" viewBox="0 0 162 37" fill="none" xmlns="http://www.w3.org/2000/svg">
<path fill-rule="evenodd" clip-rule="evenodd" d="M154.373 2.90967L161.139 2.94623C161.139 2.94623 148.56 19.7084 147.533 21.0745C147.199 21.5169 146.692 21.994 146.435 22.5853C145.786 24.0721 145.119 27.3332 145.119 27.3332L138.928 27.3634C138.928 27.3634 139.891 23.9642 139.852 22.1536C139.817 20.5718 138.996 18.9921 138.535 17.4057C138.07 15.8001 137.438 12.6578 137.438 12.6578H143.802L144.68 16.1109L154.373 2.90967Z" fill="#1A1918"/>
<path fill-rule="evenodd" clip-rule="evenodd" d="M141.561 6.44461C142.81 7.18495 143.576 11.2681 143.576 11.2681C143.576 11.2681 137.043 11.3628 133.487 11.3628H130.415L126.684 27.3331H120.979C120.979 27.3331 124.529 9.97752 125.368 6.83093C125.64 5.81243 127.229 5.987 129.912 5.987H134.198C136.966 5.987 140.201 5.63968 141.561 6.44461Z" fill="#1A1918"/>
<path fill-rule="evenodd" clip-rule="evenodd" d="M114.998 14.2226C114.998 14.2226 115.176 13.1974 114.395 12.0104C113.728 10.9983 113.111 10.7631 111.356 10.7092C106.398 10.556 106.494 14.1687 106.494 14.1687L114.998 14.2226ZM120.375 10.0856C121.102 12.6624 119.717 18.718 119.717 18.718C119.717 18.718 112.485 18.5992 108.525 18.718C107.293 18.7548 105.819 18.5864 105.452 19.1497C104.936 19.9394 105.64 21.1547 106.238 21.6681C106.925 22.2594 108.263 22.3264 108.744 22.3868C111.959 22.7883 118.688 22.4903 118.688 22.4903L117.522 27.5661C117.522 27.5661 108.013 28.0347 103.257 26.9187C102.318 26.6987 101.438 26.2542 100.843 25.6238C100.681 25.4514 100.54 25.2162 100.387 25.0133C100.264 24.8512 99.9065 24.3183 99.7461 23.8973C98.6599 21.0508 99.8734 15.5973 101.063 12.6752C101.201 12.3364 101.374 11.9072 101.557 11.5422C101.785 11.087 101.978 10.5733 102.16 10.3013C102.283 10.1136 102.435 9.99263 102.562 9.81562C102.709 9.60632 102.88 9.40341 103.038 9.22244C103.477 8.72157 103.975 8.36754 104.574 7.92761C106.556 6.46856 110.142 5.3355 114.45 5.76935C116.071 5.93326 118.521 6.50299 119.717 8.14331C120.037 8.58142 120.195 9.45094 120.375 10.0856Z" fill="#1A1918"/>
<path fill-rule="evenodd" clip-rule="evenodd" d="M94.2048 5.96748L99.7374 5.93518C99.7374 5.93518 96.6542 20.3191 95.0828 27.3331H88.7184C84.2702 27.3331 80.3089 27.8748 78.6236 24.7431C76.9887 21.7026 78.5489 16.7021 79.2819 13.3051C79.7999 10.9009 80.8907 5.98697 80.8907 5.98697L86.6228 5.93518C86.6228 5.93518 85.0032 13.5857 84.3293 17.4056C84.088 18.7738 83.5901 20.0623 84.11 21.0744C84.6038 22.0371 85.295 22.106 87.4017 22.1535C88.069 22.1687 90.2547 22.1535 90.2547 22.1535L94.2048 5.96748Z" fill="#1A1918"/>
<path fill-rule="evenodd" clip-rule="evenodd" d="M68.3091 16.3265C68.8884 14.3023 69.7332 12.1075 69.6257 10.2837C69.5096 8.33295 67.8462 6.55674 66.773 6.18353C63.5405 5.06114 60.5142 6.63017 59.3116 7.90977C57.7554 9.56745 57.2287 11.5033 56.6779 14.1685C56.2677 16.1473 55.9318 18.2364 56.6779 19.7796C57.9989 22.5075 62.1181 21.9119 66.5534 21.9378C67.2117 20.2027 67.756 18.2538 68.3091 16.3265ZM75.9902 8.34148C76.6222 12.8606 74.1973 17.8483 72.5271 22.1858C74.2301 22.3369 75.7225 22.1624 75.83 22.2873C75.9418 22.4494 74.6887 27.4648 74.2518 27.4776C72.9001 27.5123 68.4212 27.5489 66.5534 27.5489C60.4591 27.5489 54.7577 27.9394 51.8501 24.9592C50.6694 23.7485 49.8531 21.6722 49.6554 20.2113C49.3261 17.7724 49.7388 15.0877 50.3138 12.8737C50.8339 10.8751 51.501 8.98889 52.5085 7.26235C55.0693 2.86632 59.5244 -0.396657 66.9924 0.356478C68.4407 0.503327 70.5211 1.12698 71.8204 1.86701C71.9103 1.91911 72.2244 2.16498 72.2966 2.20824C74.0523 3.30687 75.6522 5.92882 75.9902 8.34148Z" fill="#1A1918"/>
<path fill-rule="evenodd" clip-rule="evenodd" d="M49.0255 5.99355C48.6568 7.64454 48.2881 9.5158 47.8996 11.1473H41.7549C42.2311 9.33878 42.5954 7.54095 43.0716 5.96765C45.0379 5.96765 46.8661 5.99355 49.0255 5.99355Z" fill="#1A1918"/>
<path fill-rule="evenodd" clip-rule="evenodd" d="M41.5356 12.658H47.4607C46.6862 16.8752 45.1523 23.6774 43.9496 28.4123C43.1968 31.3754 42.6943 33.538 40.6576 35.1024C40.4754 35.2429 40.3704 35.1762 40.2189 35.3184C39.8434 35.6703 38.1075 36.0783 37.1465 36.1815C35.5838 36.3479 33.8173 36.2032 31.8971 36.1645C32.3996 34.3581 32.9681 32.1892 33.4158 30.5705C38.0967 31.1274 38.2154 26.7765 39.1215 22.5855C39.6461 20.164 41.2351 13.6292 41.5356 12.658Z" fill="#1A1918"/>
<path fill-rule="evenodd" clip-rule="evenodd" d="M27.7097 23.6645L27.5827 23.988C25.4187 28.1315 21.5848 30.6739 16.116 30.786C13.5595 30.8378 11.1235 30.1929 9.53227 29.4912C6.09803 27.974 3.20967 25.1601 1.63212 22.1536C-0.630726 17.8438 -1.03875 11.8486 3.66633 7.37061C3.73883 7.37061 3.09566 8.34158 3.16816 8.34158L3.03866 8.75592C-0.351897 19.1947 10.094 28.1403 20.2483 27.1172C22.6886 26.8714 25.8007 25.5571 27.7097 23.6645Z" fill="#21609B"/>
<path fill-rule="evenodd" clip-rule="evenodd" d="M21.565 19.348C24.1196 19.3654 26.788 18.1912 28.3681 16.5426C26.9857 19.9936 22.983 22.2119 17.6149 21.5063C13.1205 20.9149 8.8389 16.4671 8.39774 12.0104C8.07522 8.76694 9.22493 6.8311 11.1191 4.48303C10.4608 5.71114 10.2148 6.65835 10.1534 7.2625C9.43374 14.2787 15.8527 19.3114 21.565 19.348Z" fill="#21609B"/>
<path fill-rule="evenodd" clip-rule="evenodd" d="M28.1116 10.6335C27.7144 11.5292 25.4277 13.221 24.418 13.4325C20.4196 14.27 17.8587 12.4054 16.5176 10.2837C16.318 9.96657 15.9494 9.10131 15.8834 8.88104C15.3632 7.1417 15.6024 4.51091 17.1542 3.14905C16.6867 4.44388 16.6186 5.94802 16.8645 6.92569C17.0136 7.51705 17.4677 8.54895 17.9222 9.1982C18.7494 10.3809 19.2739 10.6682 20.3363 11.2961C20.8146 11.5789 21.328 11.8055 21.5498 11.868C22.557 12.1592 24.6835 12.9276 28.1116 10.6335Z" fill="#21609B"/>
</svg>
