<svg width="104" height="65" viewBox="0 0 104 65" fill="none" xmlns="http://www.w3.org/2000/svg">
<path d="M51.3662 64.5354C51.014 64.5354 50.6853 64.4413 50.3801 64.2766L47.2578 62.4179C46.7883 62.1591 47.023 62.065 47.1639 62.018C47.7978 61.8062 47.9151 61.7592 48.5725 61.3827C48.6429 61.3357 48.7368 61.3592 48.8072 61.4063L51.2018 62.8414C51.2957 62.8885 51.4131 62.8885 51.4835 62.8414L60.8506 57.4065C60.9445 57.3595 60.9914 57.2654 60.9914 57.1477V46.3015C60.9914 46.1838 60.9445 46.0897 60.8506 46.0427L51.4835 40.6313C51.3896 40.5842 51.2722 40.5842 51.2018 40.6313L41.8348 46.0427C41.7409 46.0897 41.6939 46.2074 41.6939 46.3015V57.1477C41.6939 57.2419 41.7409 57.3595 41.8348 57.4065L44.3937 58.8888C45.7788 59.5946 46.6474 58.7712 46.6474 57.9477V47.2426C46.6474 47.1014 46.7648 46.9602 46.9291 46.9602H48.1264C48.2673 46.9602 48.4081 47.0779 48.4081 47.2426V57.9477C48.4081 59.8064 47.3987 60.8886 45.6379 60.8886C45.098 60.8886 44.6754 60.8886 43.4781 60.3005L41.0131 58.8888C40.4027 58.5359 40.0271 57.8771 40.0271 57.1713V46.325C40.0271 45.6192 40.4027 44.9604 41.0131 44.6075L50.3801 39.1726C50.9671 38.8432 51.7652 38.8432 52.3522 39.1726L61.7192 44.6075C62.3296 44.9604 62.7052 45.6192 62.7052 46.325V57.1713C62.7052 57.8771 62.3296 58.5359 61.7192 58.8888L52.3522 64.3237C52.047 64.4649 51.6948 64.5354 51.3662 64.5354ZM54.2537 57.0772C50.1454 57.0772 49.3002 55.1949 49.3002 53.5951C49.3002 53.4539 49.4176 53.3127 49.582 53.3127H50.8027C50.9436 53.3127 51.061 53.4068 51.061 53.548C51.2488 54.795 51.7887 55.4067 54.2772 55.4067C56.2492 55.4067 57.0944 54.9597 57.0944 53.9009C57.0944 53.2892 56.8596 52.8422 53.7842 52.5363C51.2253 52.2775 49.6289 51.7128 49.6289 49.6659C49.6289 47.7602 51.2253 46.6309 53.9016 46.6309C56.9066 46.6309 58.3856 47.6661 58.5734 49.9247C58.5734 49.9953 58.5499 50.0659 58.5029 50.1365C58.456 50.1835 58.3856 50.2306 58.3151 50.2306H57.0944C56.977 50.2306 56.8596 50.1365 56.8361 50.0188C56.5544 48.7248 55.8266 48.3013 53.9016 48.3013C51.7418 48.3013 51.4835 49.0542 51.4835 49.6189C51.4835 50.3012 51.7887 50.5129 54.6998 50.8894C57.5874 51.2658 58.949 51.807 58.949 53.8303C58.9255 55.9008 57.2352 57.0772 54.2537 57.0772Z" fill="#539E43"/>
<path d="M22.3025 22.115C22.3025 21.6915 22.0677 21.2915 21.6921 21.0798L11.7381 15.339C11.5738 15.2449 11.386 15.1978 11.1982 15.1743H11.1043C10.9165 15.1743 10.7287 15.2449 10.5643 15.339L0.610384 21.0798C0.234763 21.2915 0 21.6915 0 22.115L0.0234763 37.5492C0.0234763 37.7609 0.140858 37.9727 0.328668 38.0668C0.516479 38.1844 0.751242 38.1844 0.915576 38.0668L6.8316 34.6788C7.20722 34.467 7.44199 34.0671 7.44199 33.6436V26.4206C7.44199 25.9971 7.67675 25.5971 8.05237 25.3853L10.5643 23.9266C10.7521 23.809 10.9634 23.7619 11.1747 23.7619C11.386 23.7619 11.5973 23.809 11.7616 23.9266L14.2736 25.3853C14.6492 25.5971 14.884 25.9971 14.884 26.4206V33.6436C14.884 34.0671 15.1187 34.467 15.4944 34.6788L21.4104 38.0668C21.5982 38.1844 21.833 38.1844 22.0208 38.0668C22.2086 37.9727 22.326 37.7609 22.326 37.5492L22.3025 22.115Z" fill="#333333"/>
<path d="M70.1472 0.869411C69.9594 0.7753 69.7246 0.7753 69.5603 0.869411C69.3724 0.98705 69.2551 1.17527 69.2551 1.38702V16.68C69.2551 16.8212 69.1846 16.9624 69.0438 17.0565C68.9029 17.1271 68.7621 17.1271 68.6212 17.0565L66.1327 15.6213C65.7571 15.4095 65.311 15.4095 64.9354 15.6213L54.9815 21.3856C54.6059 21.5973 54.3711 21.9973 54.3711 22.4208V33.9258C54.3711 34.3493 54.6059 34.7493 54.9815 34.961L64.9354 40.7253C65.311 40.9371 65.7571 40.9371 66.1327 40.7253L76.0867 34.961C76.4623 34.7493 76.697 34.3493 76.697 33.9258V5.24556C76.697 4.79854 76.4623 4.39857 76.0867 4.18682L70.1472 0.869411ZM69.2316 30.1379C69.2316 30.2555 69.1846 30.3496 69.0907 30.3967L65.6867 32.373C65.5928 32.4201 65.4754 32.4201 65.3815 32.373L61.9774 30.3967C61.8835 30.3496 61.8366 30.232 61.8366 30.1379V26.1852C61.8366 26.0676 61.8835 25.9735 61.9774 25.9264L65.3815 23.9501C65.4754 23.903 65.5928 23.903 65.6867 23.9501L69.0907 25.9264C69.1846 25.9735 69.2316 26.0911 69.2316 26.1852V30.1379Z" fill="#333333"/>
<path d="M103.272 26.0911C103.648 25.8793 103.859 25.4794 103.859 25.0559V22.2561C103.859 21.8326 103.624 21.4326 103.272 21.2209L93.3887 15.4801C93.0131 15.2684 92.567 15.2684 92.1914 15.4801L82.2375 21.2444C81.8618 21.4561 81.6271 21.8561 81.6271 22.2796V33.7847C81.6271 34.2082 81.8618 34.6081 82.2375 34.8199L92.121 40.4665C92.4966 40.6783 92.9426 40.6783 93.2948 40.4665L99.2812 37.1256C99.4691 37.0315 99.5864 36.8197 99.5864 36.608C99.5864 36.3962 99.4691 36.1845 99.2812 36.0904L89.2803 30.3261C89.0925 30.2084 88.9752 30.0202 88.9752 29.8085V26.2087C88.9752 25.997 89.0925 25.7852 89.2803 25.6911L92.4027 23.903C92.5905 23.7854 92.8253 23.7854 93.0131 23.903L96.1354 25.6911C96.3232 25.8088 96.4406 25.997 96.4406 26.2087V29.0321C96.4406 29.2438 96.558 29.4556 96.7458 29.5497C96.9336 29.6673 97.1684 29.6673 97.3562 29.5497L103.272 26.0911Z" fill="#333333"/>
<path d="M92.6375 25.5499C92.7079 25.5029 92.8018 25.5029 92.8723 25.5499L94.7738 26.6557C94.8443 26.7028 94.8912 26.7734 94.8912 26.8675V29.0791C94.8912 29.1732 94.8443 29.2438 94.7738 29.2908L92.8723 30.3967C92.8018 30.4437 92.7079 30.4437 92.6375 30.3967L90.7359 29.2908C90.6655 29.2438 90.6185 29.1732 90.6185 29.0791V26.8675C90.6185 26.7734 90.6655 26.7028 90.7359 26.6557L92.6375 25.5499Z" fill="#539E43"/>
<mask id="mask0" mask-type="alpha" maskUnits="userSpaceOnUse" x="27" y="15" width="23" height="26">
<path d="M38.9471 15.5272C38.5715 15.3155 38.1255 15.3155 37.7498 15.5272L27.8663 21.2445C27.4907 21.4562 27.2794 21.8562 27.2794 22.2797V33.7377C27.2794 34.1612 27.5142 34.5611 27.8663 34.7729L37.7498 40.4901C38.1255 40.7019 38.5715 40.7019 38.9471 40.4901L48.8307 34.7729C49.2063 34.5611 49.4176 34.1612 49.4176 33.7377V22.2797C49.4176 21.8562 49.1828 21.4562 48.8307 21.2445L38.9471 15.5272Z" fill="white"/>
</mask>
<g mask="url(#mask0)">
<path d="M38.9471 15.5272C38.5715 15.3155 38.1255 15.3155 37.7498 15.5272L27.8663 21.2445C27.4907 21.4562 27.2794 21.8562 27.2794 22.2797V33.7377C27.2794 34.1612 27.5142 34.5611 27.8663 34.7729L37.7498 40.4901C38.1255 40.7019 38.5715 40.7019 38.9471 40.4901L48.8307 34.7729C49.2063 34.5611 49.4176 34.1612 49.4176 33.7377V22.2797C49.4176 21.8562 49.1828 21.4562 48.8307 21.2445L38.9471 15.5272Z" fill="url(#paint0_linear)"/>
<path d="M48.8542 21.2445L38.9237 15.5273C38.8298 15.4803 38.7124 15.4332 38.6185 15.4097L27.4907 34.5142C27.5846 34.6318 27.702 34.7259 27.8194 34.7965L37.7499 40.5137C38.0316 40.6784 38.3602 40.7255 38.6654 40.6314L49.1124 21.4798C49.042 21.3857 48.9481 21.3151 48.8542 21.2445Z" fill="url(#paint1_linear)"/>
<path fill-rule="evenodd" clip-rule="evenodd" d="M48.8776 34.773C49.1593 34.6083 49.3706 34.3259 49.4645 34.0201L38.5715 15.3862C38.2898 15.3391 37.9846 15.3626 37.7264 15.5273L27.8663 21.221L38.5011 40.6549C38.642 40.6314 38.8063 40.5843 38.9471 40.5137L48.8776 34.773Z" fill="url(#paint2_linear)"/>
<path fill-rule="evenodd" clip-rule="evenodd" d="M48.8777 34.7725L38.9707 40.4897C38.8299 40.5603 38.689 40.6074 38.5247 40.6309L38.7125 40.9838L49.6994 34.6078V34.4666L49.4177 33.9961C49.3707 34.3255 49.1594 34.6078 48.8777 34.7725Z" fill="url(#paint3_linear)"/>
<path fill-rule="evenodd" clip-rule="evenodd" d="M48.8777 34.7725L38.9707 40.4897C38.8299 40.5603 38.689 40.6074 38.5247 40.6309L38.7125 40.9838L49.6994 34.6078V34.4666L49.4177 33.9961C49.3707 34.3255 49.1594 34.6078 48.8777 34.7725Z" fill="url(#paint4_linear)"/>
</g>
<defs>
<linearGradient id="paint0_linear" x1="42.3751" y1="19.7892" x2="31.5076" y2="36.8272" gradientUnits="userSpaceOnUse">
<stop stop-color="#41873F"/>
<stop offset="0.3288" stop-color="#418B3D"/>
<stop offset="0.6352" stop-color="#419637"/>
<stop offset="0.9319" stop-color="#3FA92D"/>
<stop offset="1" stop-color="#3FAE2A"/>
</linearGradient>
<linearGradient id="paint1_linear" x1="36.8478" y1="29.3506" x2="64.0061" y2="14.6278" gradientUnits="userSpaceOnUse">
<stop offset="0.1376" stop-color="#41873F"/>
<stop offset="0.4032" stop-color="#54A044"/>
<stop offset="0.7136" stop-color="#66B848"/>
<stop offset="0.9081" stop-color="#6CC04A"/>
</linearGradient>
<linearGradient id="paint2_linear" x1="26.9184" y1="28.0091" x2="49.7883" y2="28.0091" gradientUnits="userSpaceOnUse">
<stop offset="0.0919165" stop-color="#6CC04A"/>
<stop offset="0.2864" stop-color="#66B848"/>
<stop offset="0.5968" stop-color="#54A044"/>
<stop offset="0.8624" stop-color="#41873F"/>
</linearGradient>
<linearGradient id="paint3_linear" x1="26.9185" y1="37.5092" x2="49.7884" y2="37.5092" gradientUnits="userSpaceOnUse">
<stop offset="0.0919165" stop-color="#6CC04A"/>
<stop offset="0.2864" stop-color="#66B848"/>
<stop offset="0.5968" stop-color="#54A044"/>
<stop offset="0.8624" stop-color="#41873F"/>
</linearGradient>
<linearGradient id="paint4_linear" x1="53.1203" y1="19.2472" x2="47.302" y2="49.6685" gradientUnits="userSpaceOnUse">
<stop stop-color="#41873F"/>
<stop offset="0.3288" stop-color="#418B3D"/>
<stop offset="0.6352" stop-color="#419637"/>
<stop offset="0.9319" stop-color="#3FA92D"/>
<stop offset="1" stop-color="#3FAE2A"/>
</linearGradient>
</defs>
</svg>
