<svg width="72" height="64" viewBox="0 0 72 64" fill="none" xmlns="http://www.w3.org/2000/svg">
<path d="M0.212158 31.6899C0.212158 37.0299 5.48911 42.015 13.8086 44.8249C12.1473 53.0895 13.5109 59.7507 18.0655 62.3463C22.7471 65.014 29.7215 63.1674 36.3412 57.4496C42.7939 62.9366 49.3155 65.096 53.8658 62.493C58.5428 59.8175 59.9655 52.7045 58.2582 44.1819C66.9235 41.3509 71.7705 37.1002 71.7705 31.6899C71.7705 26.4737 66.4838 21.961 58.2765 19.1691C60.1144 10.2943 58.5571 3.79469 53.814 1.0919C49.2412 -1.51376 42.6439 0.757337 36.0963 6.38802C29.2846 0.411494 22.7524 -1.41322 18.014 1.29746C13.4456 3.91053 12.1419 10.6928 13.8086 19.1104C5.77003 21.8799 0.212158 26.4946 0.212158 31.6899Z" fill="white"/>
<path d="M56.5382 21.9416C55.8789 21.7173 55.1958 21.5052 54.4924 21.3045C54.608 20.8383 54.7141 20.3781 54.8085 19.9258C56.3571 12.4978 55.3446 6.51372 51.8871 4.54352C48.5718 2.65436 43.1499 4.62412 37.6741 9.3331C37.1475 9.78591 36.6195 10.2653 36.0916 10.7678C35.74 10.4353 35.3888 10.1141 35.0386 9.80682C29.2998 4.77166 23.5475 2.64978 20.0934 4.62568C16.7813 6.52032 15.8004 12.1459 17.1944 19.1854C17.329 19.8654 17.4864 20.5598 17.6643 21.2657C16.8502 21.4941 16.0642 21.7376 15.3122 21.9966C8.58403 24.3145 4.28711 27.9473 4.28711 31.7154C4.28711 35.6072 8.89986 39.5107 15.9078 41.8776C16.4608 42.0644 17.0347 42.241 17.6261 42.4087C17.4341 43.1722 17.2671 43.9205 17.127 44.6503C15.7978 51.5677 16.8358 57.0603 20.1391 58.943C23.5511 60.8873 29.2774 58.8888 34.8533 54.0725C35.2941 53.6918 35.7363 53.288 36.1794 52.8648C36.7537 53.4113 37.3271 53.9285 37.8975 54.4136C43.2984 59.0063 48.6328 60.8608 51.933 58.9729C55.3416 57.023 56.4494 51.1226 55.0112 43.9437C54.9013 43.3955 54.7735 42.8353 54.63 42.2653C55.0321 42.1478 55.4269 42.0265 55.8118 41.9004C63.0972 39.5152 67.8374 35.6592 67.8374 31.7154C67.8374 27.9336 63.4019 24.2764 56.5382 21.9416Z" fill="#53C1DE"/>
<path d="M54.9581 39.354C54.6106 39.4677 54.2541 39.5775 53.8907 39.6841C53.0865 37.168 52.001 34.4926 50.6726 31.7285C51.9402 29.0302 52.9838 26.389 53.7655 23.8893C54.4156 24.0751 55.0466 24.2712 55.6546 24.4781C61.5354 26.4786 65.1226 29.4364 65.1226 31.7154C65.1226 34.143 61.2486 37.2944 54.9581 39.354ZM52.348 44.4647C52.984 47.6391 53.0748 50.5091 52.6536 52.7527C52.2751 54.7687 51.5139 56.1129 50.5728 56.6512C48.57 57.7967 44.2871 56.3077 39.6681 52.38C39.1386 51.9298 38.6053 51.449 38.0702 50.9402C39.8609 49.005 41.6505 46.7553 43.3972 44.2567C46.4694 43.9873 49.3719 43.5469 52.004 42.9456C52.1337 43.4624 52.2488 43.9692 52.348 44.4647ZM25.9529 56.4532C23.9962 57.1361 22.4378 57.1556 21.4957 56.6189C19.4912 55.4764 18.6578 51.0663 19.7945 45.1506C19.9247 44.4731 20.0797 43.7771 20.2583 43.0658C22.8616 43.6346 25.7429 44.044 28.8224 44.2907C30.5808 46.7356 32.4222 48.9829 34.2778 50.9506C33.8724 51.3374 33.4685 51.7056 33.067 52.0525C30.6013 54.1822 28.1305 55.6932 25.9529 56.4532ZM16.7859 39.3391C13.6872 38.2925 11.1281 36.9323 9.37394 35.448C7.79774 34.1142 7.00195 32.7899 7.00195 31.7154C7.00195 29.4288 10.452 26.5121 16.206 24.5297C16.9041 24.2892 17.635 24.0625 18.3934 23.8496C19.1887 26.4057 20.2319 29.0782 21.4907 31.7807C20.2156 34.5233 19.1576 37.2384 18.3545 39.8245C17.8138 39.6709 17.29 39.5092 16.7859 39.3391ZM19.8588 18.6702C18.6645 12.6389 19.4577 8.0891 21.4536 6.94739C23.5797 5.73114 28.281 7.46526 33.2361 11.8129C33.5528 12.0908 33.8708 12.3816 34.1897 12.6825C32.3432 14.6416 30.5187 16.8721 28.7759 19.3026C25.7871 19.5763 22.9261 20.016 20.2957 20.6049C20.1303 19.9475 19.9838 19.3017 19.8588 18.6702ZM47.2715 25.3589C46.6427 24.2856 45.9971 23.2377 45.339 22.2184C47.3666 22.4717 49.3093 22.8079 51.1337 23.2194C50.586 24.9539 49.9033 26.7675 49.0997 28.6267C48.5233 27.5453 47.9136 26.4549 47.2715 25.3589ZM36.0927 14.5997C37.3449 15.9403 38.5989 17.437 39.8324 19.0609C38.5894 19.0029 37.3311 18.9727 36.0623 18.9727C34.8056 18.9727 33.5565 19.0022 32.3213 19.0592C33.556 17.4504 34.8209 15.9557 36.0927 14.5997ZM24.8422 25.3775C24.2141 26.4538 23.6157 27.5383 23.0483 28.6247C22.2577 26.772 21.5814 24.9501 21.0289 23.191C22.8421 22.79 24.7756 22.4622 26.7904 22.2137C26.123 23.2424 25.4721 24.298 24.8422 25.3772V25.3775ZM26.8484 41.4085C24.7668 41.179 22.8042 40.868 20.9914 40.4781C21.5527 38.6876 22.244 36.8268 23.0513 34.9342C23.6202 36.0199 24.221 37.1048 24.853 38.1834H24.8531C25.4968 39.2823 26.1638 40.3588 26.8484 41.4085ZM36.1678 49.0202C34.8811 47.6484 33.5976 46.1309 32.3441 44.4986C33.561 44.5457 34.8015 44.5699 36.0623 44.5699C37.3577 44.5699 38.6382 44.541 39.8985 44.4856C38.661 46.1473 37.4115 47.6671 36.1678 49.0202ZM49.1256 34.8377C49.975 36.7508 50.6911 38.6018 51.2596 40.3619C49.417 40.7772 47.4276 41.1118 45.3315 41.3604C45.9912 40.3273 46.6424 39.2614 47.2824 38.165C47.9297 37.0557 48.5444 35.9447 49.1256 34.8377ZM44.9307 36.8248C43.9373 38.5268 42.9174 40.1516 41.8821 41.6853C39.9963 41.8186 38.048 41.8872 36.0623 41.8872C34.0847 41.8872 32.161 41.8265 30.3086 41.7077C29.2315 40.1539 28.1894 38.5243 27.2023 36.8394H27.2026C26.2181 35.1592 25.312 33.4647 24.491 31.7798C25.3118 30.0909 26.2155 28.3946 27.1943 26.7174L27.1941 26.7177C28.1755 25.036 29.2084 23.4143 30.2755 21.8702C32.1655 21.729 34.1036 21.6554 36.0622 21.6554H36.0623C38.0298 21.6554 39.9704 21.7296 41.8598 21.872C42.9107 23.4048 43.9365 25.0212 44.9218 26.7032C45.9183 28.404 46.8336 30.089 47.6614 31.7417C46.8361 33.4227 45.9228 35.1247 44.9307 36.8248ZM50.5311 6.86759C52.6592 8.08027 53.4868 12.971 52.1497 19.3843C52.0644 19.7935 51.9684 20.2103 51.8641 20.6327C49.2276 20.0316 46.3645 19.5842 43.367 19.3064C41.6208 16.8491 39.8112 14.6153 37.9949 12.6813C38.4832 12.2171 38.9709 11.7744 39.4565 11.3567C44.1482 7.32207 48.5332 5.72913 50.5311 6.86759Z" fill="white"/>
<path d="M36.0623 26.1079C39.1963 26.1079 41.7371 28.6184 41.7371 31.7155C41.7371 34.8124 39.1963 37.323 36.0623 37.323C32.9282 37.323 30.3875 34.8124 30.3875 31.7155C30.3875 28.6184 32.9282 26.1079 36.0623 26.1079Z" fill="#53C1DE"/>
</svg>
